<?xml version="1.0" encoding="utf-8"?>
<!-- Generator: Adobe Illustrator 24.1.3, SVG Export Plug-In . SVG Version: 6.00 Build 0)  -->
<svg version="1.1" xmlns="http://www.w3.org/2000/svg" xmlns:xlink="http://www.w3.org/1999/xlink" x="0px" y="0px"
	 viewBox="0 0 1430.5 1012.2" style="enable-background:new 0 0 1430.5 1012.2;" xml:space="preserve">
<style type="text/css">
	.st0{fill:url(#SVGID_1_);}
	.st1{fill:#CCCCCC;}
	.st2{fill:#28CECA;}
	.st3{display:none;}
</style>
<g id="Capa_1">
	<linearGradient id="SVGID_1_" gradientUnits="userSpaceOnUse" x1="4.1965" y1="506.5374" x2="1430.49" y2="506.5374">
		<stop  offset="0" style="stop-color:#FFFFFF"/>
		<stop  offset="0.1235" style="stop-color:#FBFDFD"/>
		<stop  offset="0.2515" style="stop-color:#EEF6F6"/>
		<stop  offset="0.3817" style="stop-color:#DAECEB"/>
		<stop  offset="0.5133" style="stop-color:#BCDDDC"/>
		<stop  offset="0.6462" style="stop-color:#97C9C8"/>
		<stop  offset="0.78" style="stop-color:#69B1B0"/>
		<stop  offset="0.912" style="stop-color:#349694"/>
		<stop  offset="1" style="stop-color:#0C817F"/>
	</linearGradient>
	<rect x="4.2" y="0.5" class="st0" width="1426.3" height="1012.1"/>
	<path class="st1" d="M89-0.4c0.2,1.6,0.3,3.3,0.2,4.9C87.6,31.3,80.1,58.4,73,84.1c-2.2,8.2,8.7,5.6,12.6,5.2
		c21.3-2.2,54.3-5.8,99.1-10.7c41.7-4.6,109.6-11.7,203.5-21.4c116.3-12,232.9-22.8,349.7-29.6c7.8-0.5,18.3-1.7,27.6-1.9
		c0.4,0,0.5,0.2,0.5,0.5c0,0.2-0.1,0.3-0.3,0.5c-0.2,0.2-0.5,0.3-0.9,0.3c-20.6,1.7-41,4.5-61.5,6.8c-96.5,11-196,23.7-291.1,39.4
		c-52.1,8.6-103.8,19.3-155,32.1c-37.9,9.4-75,21.3-111.3,35.5c-52.1,20.4-99.4,48.7-141.9,85c-1.5,1.3-2,2.9-1.8,4.7
		c0.1,0.6-0.4,1.2-1,1.2c-0.2,0-0.4,0-0.6-0.1c-0.4-0.2-0.6-0.6-0.8-1.3V2c0.4-0.7,0.5-1.5,0.5-2.4L89-0.4z"/>
	<path class="st2" d="M92.6-0.3l950.9,0.1c0,0,0.1,0,0.1,0c0,0,0-0.1-0.1-0.1c-100.2-0.1,8.9-0.1,327.5,0.1c18,0,36.8,0.3,55.2,0.1
		c0.3,0,0.5,0.2,0.5,0.5l0,20.3c-7.2,0.1-14.4,0-21.6-0.2c-1.8,0-3.6-0.9-5.3-0.8c-7,0.2-14.7-1.1-20.5-1.4
		c-79.7-3.2-159.4-6.1-239.3-6.4c-163.3-0.6-326.6,5.6-489.4,18.3c-189.1,14.7-377.5,35.5-566,56.2c-2.3,0.3-4.9,0-7.1,0.3
		c-1.5,0.2-2-0.5-1.6-1.9C83.6,57,91.5,27.7,92.6-0.3z"/>
	<path class="st1" d="M1430.7,779.2l0,232.7c0,0.4-0.2,0.5-0.5,0.5l-89.7,0.3l-3.8-0.6l3.1,0.1c0.4,0,0.6-0.2,0.5-0.5
		c-0.7-11,1.6-23.8,3.7-33.9c3.4-16.5,7.7-34.1,12.8-52.7c1-3.7-5-4.6-7.3-4.3c-208.8,22.8-417.7,45.8-627.2,60.7
		c-6,0.4-11.9,0.8-17.9,1c-13.1,0.6-27.4,2-41.2,2.1c-0.3,0-0.5-0.1-0.7-0.2c-0.3-0.3-0.2-0.4,0.2-0.4c13.2-0.9,29.1-3,39.2-4.1
		c112.8-12.5,225.6-26.6,337.4-46.1c42.5-7.4,84.6-16.3,126.5-26.6c56.2-13.9,111.3-31.6,163.1-57.6c34.4-17.2,66.1-38.4,95.2-63.5
		c2-1.8,3.7-2.2,3.1-5.6c-0.1-0.3,0.1-0.7,0.4-0.9C1428.4,778.8,1429.4,778.8,1430.7,779.2z"/>
	<path class="st2" d="M1338.1,1011.7l3.8,0.6L4.2,1012.6v-18.3l0.2-4c0-0.5,0.4-0.9,0.9-0.8c132,6.9,264.3,10,396.6,8
		c1.1,0,2.6-1,3.9-0.9c12.5,0.1,25.1-0.1,37.6-0.6c6-0.3,13.8,0.3,20.3,0.2c83.4-2.1,166.7-6,249.9-11.7
		c212.1-14.3,423.4-38.2,634.6-61.2c1.7-0.2,3.3-0.3,4.7-0.3c0.7,0,1.2,0.5,1.2,1.2c0,0.1,0,0.2,0,0.3c-2.6,9.6-5,19.1-7.4,28.4
		c-4.3,16.8-7.5,35.4-9.7,55.9C1336.8,1010.6,1337.2,1011.6,1338.1,1011.7z"/>
</g>
<g id="Capa_2" class="st3">
</g>
</svg>
