<?xml version="1.0" encoding="UTF-8" standalone="no"?>
<!DOCTYPE svg PUBLIC "-//W3C//DTD SVG 1.1//EN" "http://www.w3.org/Graphics/SVG/1.1/DTD/svg11.dtd">
<svg xmlns="http://www.w3.org/2000/svg" version="1.1" viewBox="0.00 0.00 1431.00 1013.00">
<g stroke-width="2.00" fill="none" stroke-linecap="butt">
<path stroke="#969696" vector-effect="non-scaling-stroke" d="
  M 21.57 0.00
  L 0.58 0.31
  Q 0.17 0.32 0.23 0.73
  Q 0.26 0.94 0.50 1.04"
/>
<path stroke="#e6e6e6" vector-effect="non-scaling-stroke" d="
  M 0.50 1.04
  Q 0.55 2.35 0.00 3.45"
/>
<path stroke="#969696" vector-effect="non-scaling-stroke" d="
  M 92.81 0.00
  L 688.00 0.17"
/>
<path stroke="#2a7d7b" vector-effect="non-scaling-stroke" d="
  M 688.00 0.17
  L 700.32 0.00"
/>
<path stroke="#969696" vector-effect="non-scaling-stroke" d="
  M 790.56 0.00
  L 942.25 0.17"
/>
<path stroke="#2a7d7b" vector-effect="non-scaling-stroke" d="
  M 942.25 0.17
  L 948.33 0.00"
/>
<path stroke="#2a7d7b" vector-effect="non-scaling-stroke" d="
  M 986.79 0.00
  L 993.50 0.17"
/>
<path stroke="#969696" vector-effect="non-scaling-stroke" d="
  M 993.50 0.17
  L 1022.32 0.00"
/>
<path stroke="#2a7d7b" vector-effect="non-scaling-stroke" d="
  M 1090.80 0.00
  L 1112.32 0.00"
/>
<path stroke="#2a7d7b" vector-effect="non-scaling-stroke" d="
  M 1268.80 0.00
  L 1273.51 0.22"
/>
<path stroke="#969696" vector-effect="non-scaling-stroke" d="
  M 1273.51 0.22
  L 1294.25 0.22"
/>
<path stroke="#2a7d7b" vector-effect="non-scaling-stroke" d="
  M 1294.25 0.22
  L 1302.35 0.00"
/>
<path stroke="#2a7d7b" vector-effect="non-scaling-stroke" d="
  M 1302.52 0.00
  L 1306.75 0.17"
/>
<path stroke="#969696" vector-effect="non-scaling-stroke" d="
  M 1306.75 0.17
  L 1384.07 0.00"
/>
<path stroke="#2a7d7b" vector-effect="non-scaling-stroke" d="
  M 0.00 1012.00
  L 1337.76 1011.70"
/>
<path stroke="#7c7c7c" vector-effect="non-scaling-stroke" d="
  M 1337.76 1011.70
  L 1427.45 1011.45
  Q 1427.98 1011.45 1427.98 1010.92
  L 1427.99 778.26"
/>
<path stroke="#969696" vector-effect="non-scaling-stroke" d="
  M 1427.99 778.26
  L 1428.00 22.28"
/>
<path stroke="#2a7d7b" vector-effect="non-scaling-stroke" d="
  M 1428.00 22.28
  L 1427.98 1.97
  Q 1427.98 1.45 1427.46 1.45
  C 1409.04 1.62 1390.28 1.31 1372.25 1.30
  Q 894.37 0.99 1044.74 1.20
  A 0.06 0.05 45.0 0 1 1044.74 1.31
  L 93.84 1.25"
/>
<path stroke="#969696" vector-effect="non-scaling-stroke" d="
  M 93.84 1.25
  L 89.22 1.07"
/>
<path stroke="#7c7c7c" vector-effect="non-scaling-stroke" d="
  M 89.22 1.07
  L 0.50 1.04"
/>
<path stroke="#94e7e5" vector-effect="non-scaling-stroke" d="
  M 688.06 0.00
  Q 688.03 0.08 688.00 0.17"
/>
<path stroke="#94e7e5" vector-effect="non-scaling-stroke" d="
  M 942.31 0.00
  Q 942.28 0.08 942.25 0.17"
/>
<path stroke="#94e7e5" vector-effect="non-scaling-stroke" d="
  M 993.56 0.00
  Q 993.53 0.08 993.50 0.17"
/>
<path stroke="#94e7e5" vector-effect="non-scaling-stroke" d="
  M 1273.56 0.00
  Q 1273.53 0.11 1273.51 0.22"
/>
<path stroke="#94e7e5" vector-effect="non-scaling-stroke" d="
  M 1294.31 0.00
  Q 1294.28 0.11 1294.25 0.22"
/>
<path stroke="#94e7e5" vector-effect="non-scaling-stroke" d="
  M 1306.81 0.00
  Q 1306.78 0.08 1306.75 0.17"
/>
<path stroke="#e6e6e6" vector-effect="non-scaling-stroke" d="
  M 89.22 1.07
  Q 89.59 3.51 89.44 6.00
  C 87.85 32.70 80.37 59.81 73.30 85.54
  C 71.07 93.69 81.96 91.14 85.87 90.73
  Q 117.83 87.40 185.00 80.02
  Q 247.61 73.14 388.51 58.61
  C 504.82 46.61 621.44 35.78 738.18 28.99
  C 746.01 28.53 756.52 27.33 765.76 27.08
  Q 766.32 27.06 766.21 27.61
  Q 766.15 27.88 765.95 28.08
  Q 765.69 28.33 765.09 28.38
  C 744.47 30.05 724.10 32.83 703.57 35.16
  C 607.08 46.13 507.62 58.84 412.47 74.58
  Q 334.32 87.50 257.48 106.65
  Q 200.67 120.81 146.18 142.14
  Q 68.02 172.74 4.25 227.11
  C 2.75 228.39 2.22 230.00 2.43 231.82
  A 1.13 1.13 0.0 0 1 0.81 232.96
  Q 0.28 232.70 0.00 231.69"
/>
<path stroke="#94e7e5" vector-effect="non-scaling-stroke" d="
  M 93.84 1.25
  C 92.75 29.19 84.84 58.51 77.26 86.43
  Q 76.67 88.59 78.89 88.35
  C 81.12 88.11 83.77 88.31 86.03 88.06
  C 274.49 67.31 462.95 46.56 652.01 31.84
  C 814.82 19.17 978.13 12.88 1141.43 13.53
  C 1221.24 13.85 1300.97 16.69 1380.69 19.91
  C 1386.47 20.15 1394.19 21.50 1401.16 21.26
  C 1402.85 21.20 1404.60 22.04 1406.44 22.08
  Q 1417.17 22.37 1428.00 22.28"
/>
<path stroke="#e6e6e6" vector-effect="non-scaling-stroke" d="
  M 1427.99 778.26
  Q 1426.02 777.63 1424.83 778.40
  A 0.86 0.85 -21.5 0 0 1424.45 779.27
  C 1425.02 782.66 1423.38 783.10 1421.35 784.85
  Q 1377.65 822.44 1326.12 848.30
  C 1274.30 874.31 1219.14 892.04 1162.98 905.92
  Q 1100.21 921.44 1036.51 932.56
  C 924.72 952.07 811.93 966.23 699.16 978.70
  C 689.03 979.82 673.11 981.94 659.95 982.83
  Q 659.36 982.87 659.80 983.26
  Q 660.07 983.51 660.50 983.50
  C 674.32 983.40 688.63 982.03 701.69 981.43
  Q 710.63 981.02 719.57 980.38
  C 929.14 965.52 1137.98 942.45 1346.80 919.69
  C 1349.08 919.44 1355.06 920.34 1354.06 924.01
  Q 1346.38 952.01 1341.26 976.75
  C 1339.18 986.85 1336.87 999.63 1337.60 1010.65
  Q 1337.64 1011.22 1337.06 1011.20
  L 1333.92 1011.09"
/>
<path stroke="#94e7e5" vector-effect="non-scaling-stroke" d="
  M 1333.92 1011.09
  Q 1332.56 1010.90 1332.83 1008.26
  Q 1336.06 977.61 1342.52 952.39
  Q 1346.09 938.44 1349.92 924.00
  A 1.21 1.20 -82.4 0 0 1348.76 922.48
  Q 1346.68 922.47 1344.08 922.75
  C 1132.82 945.70 921.50 969.56 709.44 983.90
  Q 584.60 992.34 459.52 995.56
  C 453.01 995.73 445.21 995.14 439.19 995.39
  Q 420.39 996.19 401.58 995.98
  C 400.28 995.97 398.77 996.91 397.69 996.92
  C 265.47 998.89 133.18 995.77 1.14 988.87
  A 0.89 0.89 0.0 0 0 0.21 989.71
  L 0.00 993.69"
/>
<path stroke="#7acdcb" vector-effect="non-scaling-stroke" d="
  M 1337.76 1011.70
  L 1333.92 1011.09"
/>
</g>
<path fill="#ffffff" d="
  M 0.00 0.00
  L 21.57 0.00
  L 0.58 0.31
  Q 0.17 0.32 0.23 0.73
  Q 0.26 0.94 0.50 1.04
  Q 0.55 2.35 0.00 3.45
  L 0.00 0.00
  Z"
/>
<path fill="#2c2c2c" d="
  M 21.57 0.00
  L 92.81 0.00
  L 688.00 0.17
  L 700.32 0.00
  L 790.56 0.00
  L 942.25 0.17
  L 948.33 0.00
  L 986.79 0.00
  L 993.50 0.17
  L 1022.32 0.00
  L 1090.80 0.00
  L 1112.32 0.00
  L 1268.80 0.00
  L 1273.51 0.22
  L 1294.25 0.22
  L 1302.35 0.00
  Q 1302.43 0.05 1302.52 0.00
  L 1306.75 0.17
  L 1384.07 0.00
  L 1431.00 0.00
  L 1431.00 1013.00
  L 0.00 1013.00
  L 0.00 1012.00
  L 1337.76 1011.70
  L 1427.45 1011.45
  Q 1427.98 1011.45 1427.98 1010.92
  L 1427.99 778.26
  L 1428.00 22.28
  L 1427.98 1.97
  Q 1427.98 1.45 1427.46 1.45
  C 1409.04 1.62 1390.28 1.31 1372.25 1.30
  Q 894.37 0.99 1044.74 1.20
  A 0.06 0.05 45.0 0 1 1044.74 1.31
  L 93.84 1.25
  L 89.22 1.07
  L 0.50 1.04
  Q 0.26 0.94 0.23 0.73
  Q 0.17 0.32 0.58 0.31
  L 21.57 0.00
  Z"
/>
<path fill="#ffffff" d="
  M 92.81 0.00
  L 688.06 0.00
  Q 688.03 0.08 688.00 0.17
  L 92.81 0.00
  Z"
/>
<path fill="#28ceca" d="
  M 688.06 0.00
  L 700.32 0.00
  L 688.00 0.17
  Q 688.03 0.08 688.06 0.00
  Z"
/>
<path fill="#ffffff" d="
  M 790.56 0.00
  L 942.31 0.00
  Q 942.28 0.08 942.25 0.17
  L 790.56 0.00
  Z"
/>
<path fill="#28ceca" d="
  M 942.31 0.00
  L 948.33 0.00
  L 942.25 0.17
  Q 942.28 0.08 942.31 0.00
  Z"
/>
<path fill="#28ceca" d="
  M 986.79 0.00
  L 993.56 0.00
  Q 993.53 0.08 993.50 0.17
  L 986.79 0.00
  Z"
/>
<path fill="#ffffff" d="
  M 993.56 0.00
  L 1022.32 0.00
  L 993.50 0.17
  Q 993.53 0.08 993.56 0.00
  Z"
/>
<path fill="#28ceca" d="
  M 1090.80 0.00
  L 1112.32 0.00
  L 1090.80 0.00
  Z"
/>
<path fill="#28ceca" d="
  M 1268.80 0.00
  L 1273.56 0.00
  Q 1273.53 0.11 1273.51 0.22
  L 1268.80 0.00
  Z"
/>
<path fill="#ffffff" d="
  M 1273.56 0.00
  L 1294.31 0.00
  Q 1294.28 0.11 1294.25 0.22
  L 1273.51 0.22
  Q 1273.53 0.11 1273.56 0.00
  Z"
/>
<path fill="#28ceca" d="
  M 1294.31 0.00
  L 1302.35 0.00
  L 1294.25 0.22
  Q 1294.28 0.11 1294.31 0.00
  Z"
/>
<path fill="#28ceca" d="
  M 1302.52 0.00
  L 1306.81 0.00
  Q 1306.78 0.08 1306.75 0.17
  L 1302.52 0.00
  Z"
/>
<path fill="#ffffff" d="
  M 1306.81 0.00
  L 1384.07 0.00
  L 1306.75 0.17
  Q 1306.78 0.08 1306.81 0.00
  Z"
/>
<path fill="#cccccc" d="
  M 89.22 1.07
  Q 89.59 3.51 89.44 6.00
  C 87.85 32.70 80.37 59.81 73.30 85.54
  C 71.07 93.69 81.96 91.14 85.87 90.73
  Q 117.83 87.40 185.00 80.02
  Q 247.61 73.14 388.51 58.61
  C 504.82 46.61 621.44 35.78 738.18 28.99
  C 746.01 28.53 756.52 27.33 765.76 27.08
  Q 766.32 27.06 766.21 27.61
  Q 766.15 27.88 765.95 28.08
  Q 765.69 28.33 765.09 28.38
  C 744.47 30.05 724.10 32.83 703.57 35.16
  C 607.08 46.13 507.62 58.84 412.47 74.58
  Q 334.32 87.50 257.48 106.65
  Q 200.67 120.81 146.18 142.14
  Q 68.02 172.74 4.25 227.11
  C 2.75 228.39 2.22 230.00 2.43 231.82
  A 1.13 1.13 0.0 0 1 0.81 232.96
  Q 0.28 232.70 0.00 231.69
  L 0.00 3.45
  Q 0.55 2.35 0.50 1.04
  L 89.22 1.07
  Z"
/>
<path fill="#ffffff" d="
  M 89.22 1.07
  L 93.84 1.25
  C 92.75 29.19 84.84 58.51 77.26 86.43
  Q 76.67 88.59 78.89 88.35
  C 81.12 88.11 83.77 88.31 86.03 88.06
  C 274.49 67.31 462.95 46.56 652.01 31.84
  C 814.82 19.17 978.13 12.88 1141.43 13.53
  C 1221.24 13.85 1300.97 16.69 1380.69 19.91
  C 1386.47 20.15 1394.19 21.50 1401.16 21.26
  C 1402.85 21.20 1404.60 22.04 1406.44 22.08
  Q 1417.17 22.37 1428.00 22.28
  L 1427.99 778.26
  Q 1426.02 777.63 1424.83 778.40
  A 0.86 0.85 -21.5 0 0 1424.45 779.27
  C 1425.02 782.66 1423.38 783.10 1421.35 784.85
  Q 1377.65 822.44 1326.12 848.30
  C 1274.30 874.31 1219.14 892.04 1162.98 905.92
  Q 1100.21 921.44 1036.51 932.56
  C 924.72 952.07 811.93 966.23 699.16 978.70
  C 689.03 979.82 673.11 981.94 659.95 982.83
  Q 659.36 982.87 659.80 983.26
  Q 660.07 983.51 660.50 983.50
  C 674.32 983.40 688.63 982.03 701.69 981.43
  Q 710.63 981.02 719.57 980.38
  C 929.14 965.52 1137.98 942.45 1346.80 919.69
  C 1349.08 919.44 1355.06 920.34 1354.06 924.01
  Q 1346.38 952.01 1341.26 976.75
  C 1339.18 986.85 1336.87 999.63 1337.60 1010.65
  Q 1337.64 1011.22 1337.06 1011.20
  L 1333.92 1011.09
  Q 1332.56 1010.90 1332.83 1008.26
  Q 1336.06 977.61 1342.52 952.39
  Q 1346.09 938.44 1349.92 924.00
  A 1.21 1.20 -82.4 0 0 1348.76 922.48
  Q 1346.68 922.47 1344.08 922.75
  C 1132.82 945.70 921.50 969.56 709.44 983.90
  Q 584.60 992.34 459.52 995.56
  C 453.01 995.73 445.21 995.14 439.19 995.39
  Q 420.39 996.19 401.58 995.98
  C 400.28 995.97 398.77 996.91 397.69 996.92
  C 265.47 998.89 133.18 995.77 1.14 988.87
  A 0.89 0.89 0.0 0 0 0.21 989.71
  L 0.00 993.69
  L 0.00 231.69
  Q 0.28 232.70 0.81 232.96
  A 1.13 1.13 0.0 0 0 2.43 231.82
  C 2.22 230.00 2.75 228.39 4.25 227.11
  Q 68.02 172.74 146.18 142.14
  Q 200.67 120.81 257.48 106.65
  Q 334.32 87.50 412.47 74.58
  C 507.62 58.84 607.08 46.13 703.57 35.16
  C 724.10 32.83 744.47 30.05 765.09 28.38
  Q 765.69 28.33 765.95 28.08
  Q 766.15 27.88 766.21 27.61
  Q 766.32 27.06 765.76 27.08
  C 756.52 27.33 746.01 28.53 738.18 28.99
  C 621.44 35.78 504.82 46.61 388.51 58.61
  Q 247.61 73.14 185.00 80.02
  Q 117.83 87.40 85.87 90.73
  C 81.96 91.14 71.07 93.69 73.30 85.54
  C 80.37 59.81 87.85 32.70 89.44 6.00
  Q 89.59 3.51 89.22 1.07
  Z"
/>
<path fill="#28ceca" d="
  M 93.84 1.25
  L 1044.74 1.31
  A 0.06 0.05 45.0 0 0 1044.74 1.20
  Q 894.37 0.99 1372.25 1.30
  C 1390.28 1.31 1409.04 1.62 1427.46 1.45
  Q 1427.98 1.45 1427.98 1.97
  L 1428.00 22.28
  Q 1417.17 22.37 1406.44 22.08
  C 1404.60 22.04 1402.85 21.20 1401.16 21.26
  C 1394.19 21.50 1386.47 20.15 1380.69 19.91
  C 1300.97 16.69 1221.24 13.85 1141.43 13.53
  C 978.13 12.88 814.82 19.17 652.01 31.84
  C 462.95 46.56 274.49 67.31 86.03 88.06
  C 83.77 88.31 81.12 88.11 78.89 88.35
  Q 76.67 88.59 77.26 86.43
  C 84.84 58.51 92.75 29.19 93.84 1.25
  Z"
/>
<path fill="#cccccc" d="
  M 1427.99 778.26
  L 1427.98 1010.92
  Q 1427.98 1011.45 1427.45 1011.45
  L 1337.76 1011.70
  L 1333.92 1011.09
  L 1337.06 1011.20
  Q 1337.64 1011.22 1337.60 1010.65
  C 1336.87 999.63 1339.18 986.85 1341.26 976.75
  Q 1346.38 952.01 1354.06 924.01
  C 1355.06 920.34 1349.08 919.44 1346.80 919.69
  C 1137.98 942.45 929.14 965.52 719.57 980.38
  Q 710.63 981.02 701.69 981.43
  C 688.63 982.03 674.32 983.40 660.50 983.50
  Q 660.07 983.51 659.80 983.26
  Q 659.36 982.87 659.95 982.83
  C 673.11 981.94 689.03 979.82 699.16 978.70
  C 811.93 966.23 924.72 952.07 1036.51 932.56
  Q 1100.21 921.44 1162.98 905.92
  C 1219.14 892.04 1274.30 874.31 1326.12 848.30
  Q 1377.65 822.44 1421.35 784.85
  C 1423.38 783.10 1425.02 782.66 1424.45 779.27
  A 0.86 0.85 -21.5 0 1 1424.83 778.40
  Q 1426.02 777.63 1427.99 778.26
  Z"
/>
<path fill="#28ceca" d="
  M 1333.92 1011.09
  L 1337.76 1011.70
  L 0.00 1012.00
  L 0.00 993.69
  L 0.21 989.71
  A 0.89 0.89 0.0 0 1 1.14 988.87
  C 133.18 995.77 265.47 998.89 397.69 996.92
  C 398.77 996.91 400.28 995.97 401.58 995.98
  Q 420.39 996.19 439.19 995.39
  C 445.21 995.14 453.01 995.73 459.52 995.56
  Q 584.60 992.34 709.44 983.90
  C 921.50 969.56 1132.82 945.70 1344.08 922.75
  Q 1346.68 922.47 1348.76 922.48
  A 1.21 1.20 -82.4 0 1 1349.92 924.00
  Q 1346.09 938.44 1342.52 952.39
  Q 1336.06 977.61 1332.83 1008.26
  Q 1332.56 1010.90 1333.92 1011.09
  Z"
/>
</svg>
