<svg xmlns="http://www.w3.org/2000/svg" viewBox="0 0 1431 1013"><defs><style>.cls-1{fill:#fff;}.cls-2{fill:#28ceca;}.cls-3{fill:#ccc;}</style></defs><g id="Capa_2" data-name="Capa 2"><g id="Capa_1-2" data-name="Capa 1"><path class="cls-1" d="M0,0H21.57L.58.31A.32.32,0,0,0,.23.73.4.4,0,0,0,.5,1,4.88,4.88,0,0,1,0,3.45Z"/><path class="cls-1" d="M92.81,0H688.06L688,.17Z"/><path class="cls-2" d="M688.06,0h12.26L688,.17Z"/><path class="cls-1" d="M790.56,0H942.31l-.06.17Z"/><path class="cls-2" d="M942.31,0h6l-6.08.17Z"/><path class="cls-2" d="M986.79,0h6.77l-.06.17Z"/><path class="cls-1" d="M993.56,0h28.76L993.5.17Z"/><path class="cls-2" d="M1090.8,0h0Z"/><path class="cls-2" d="M1268.8,0h4.76a1.74,1.74,0,0,0,0,.22Z"/><path class="cls-1" d="M1273.56,0h20.75l-.06.22h-20.74A1.74,1.74,0,0,1,1273.56,0Z"/><path class="cls-2" d="M1294.31,0h8l-8.1.22Z"/><path class="cls-2" d="M1302.52,0h4.29l-.06.17Z"/><path class="cls-1" d="M1306.81,0h77.26l-77.32.17Z"/><path class="cls-3" d="M89.22,0A23.19,23.19,0,0,1,89.44,5C87.85,31.66,80.37,58.77,73.3,84.5c-2.23,8.15,8.66,5.6,12.57,5.19Q117.84,86.36,185,79q62.61-6.89,203.51-21.41C504.82,45.57,621.44,34.74,738.18,28c7.83-.46,18.34-1.66,27.58-1.91.37,0,.52.16.45.53A1,1,0,0,1,766,27a1.34,1.34,0,0,1-.86.3c-20.62,1.67-41,4.45-61.52,6.78-96.49,11-196,23.68-291.1,39.42q-78.15,12.92-155,32.07a906.78,906.78,0,0,0-111.3,35.49,495.71,495.71,0,0,0-141.93,85,5.08,5.08,0,0,0-1.82,4.71,1.13,1.13,0,0,1-1,1.25,1.2,1.2,0,0,1-.62-.11A1.9,1.9,0,0,1,0,230.65V2.41A4.88,4.88,0,0,0,.5,0Z"/><path class="cls-2" d="M92.84.13l950.9.06a0,0,0,0,0,.06,0,.09.09,0,0,0-.06-.07q-150.37-.21,327.51.1c18,0,36.79.32,55.21.15a.46.46,0,0,1,.52.52l0,20.31q-10.83.09-21.56-.2c-1.84,0-3.59-.88-5.28-.82-7,.24-14.69-1.11-20.47-1.35-79.72-3.22-159.45-6.06-239.26-6.38q-245-1-489.42,18.31C462,45.44,273.49,66.19,85,86.94c-2.26.25-4.91,0-7.14.29-1.48.16-2-.48-1.63-1.92C83.84,57.39,91.75,28.07,92.84.13Z"/><path class="cls-3" d="M1431,779.56v232.66a.47.47,0,0,1-.53.53l-89.69.25-3.84-.61,3.14.11c.39,0,.57-.17.54-.55-.73-11,1.58-23.8,3.66-33.9q5.12-24.74,12.8-52.74c1-3.67-5-4.57-7.26-4.32C1141,943.75,932.15,966.82,722.58,981.68q-8.94.65-17.88,1.05c-13.06.6-27.37,2-41.19,2.07a.92.92,0,0,1-.7-.24c-.29-.26-.24-.4.15-.43,13.16-.89,29.08-3,39.21-4.13,112.77-12.47,225.56-26.63,337.35-46.14q63.7-11.11,126.47-26.64c56.16-13.88,111.32-31.61,163.14-57.62a466,466,0,0,0,95.23-63.45c2-1.75,3.67-2.19,3.1-5.58a.86.86,0,0,1,.38-.87A3.64,3.64,0,0,1,1431,779.56Z"/><path class="cls-2" d="M1337.92,1012.09l3.84.61L4,1013V994.69l.21-4a.89.89,0,0,1,.93-.84c132,6.9,264.33,10,396.55,8,1.08,0,2.59-.95,3.89-.94q18.81.21,37.61-.59c6-.25,13.82.34,20.33.17q125.09-3.22,249.92-11.66c212.06-14.34,423.38-38.2,634.64-61.15a40.58,40.58,0,0,1,4.68-.27,1.21,1.21,0,0,1,1.2,1.21,1.1,1.1,0,0,1,0,.31q-3.83,14.44-7.4,28.39a390,390,0,0,0-9.69,55.87C1336.65,1011,1337,1012,1337.92,1012.09Z"/></g></g></svg>