<svg xmlns="http://www.w3.org/2000/svg" viewBox="0 0 160.78 161.76"><defs><style>.cls-1{fill:#05adba;}.cls-2{fill:#838385;}</style></defs><g id="Capa_2" data-name="Capa 2"><g id="Capa_1-2" data-name="Capa 1"><path class="cls-1" d="M82.55,38.84q-5.58,1.35-9.13-.36A73.9,73.9,0,0,1,49.1,21.83a.58.58,0,0,1-.12-.67c.22-.54.65-.65,1.29-.34,6,3,25.47,12.9,31.18,7.09C92.1,17.13,99.86,6.34,114.59,1.33c7.21-2.46,14.51-1.16,21.93,1,23.66,7.05,27.61,35.49,22,55.84-7.21,26-15.45,50.09-29.37,73.42-10.6,17.77-32.58,40.45-54.78,25.08A15,15,0,0,1,68,147.4c-1.25-5.41-.5-10.11.31-14.21a57,57,0,0,1,2-7.22,81.64,81.64,0,0,1,3.36-8.77h0a8.15,8.15,0,0,1,1-1.61c.19-.24,1.11-1.43,1.47-1.26.12.07.14.28.15.35.06.88-3.13,16.94-.13,24.83a15.37,15.37,0,0,0,7.41,7.85,13.94,13.94,0,0,0,5.54,1.24c9.09.28,16-5.71,20.81-13a175,175,0,0,0,12.15-22c2.37-5.1,6.33-12.44,8.67-19.06,3.6-10.18,8-21,10.1-30.86,2.17-10.46,5.35-27.92.14-37.77-4.88-9.22-17.25-12.6-26.48-7.88q-1.44.73-9.61,6.64C97.56,30,90.93,35.53,82.55,38.84Z"/><path class="cls-2" d="M78.2,41.83a24.32,24.32,0,0,1-9.1,2.24C64.21,44.3,60.22,43.38,55,41Q43.67,35.87,31.9,31.89a15.53,15.53,0,0,0-12.45.76c-6,3.19-7.47,10.62-8.09,13.74-.36,1.75-.81,4.9.08,11.39,1.08,7.91,3.09,13.12,4.86,18.32a208.31,208.31,0,0,1,10.18,49.26,91.93,91.93,0,0,1-1,23.72.38.38,0,0,1-.46.29.36.36,0,0,1-.28-.29c-1.45-9-2.89-16.55-4.06-22.3-2.41-11.87-4.21-18.77-5.12-22.14-2-7.29-8.95-24-9.15-24.53C.73,64.21-4.4,47.11,6,31.93A20.64,20.64,0,0,1,12,26a21.55,21.55,0,0,1,6.57-2.63c1.75-.41,8.34-1.76,17.42,1,3.68,1.12,7.66,3.31,15.62,7.69a94.35,94.35,0,0,0,10.15,5.22,58.85,58.85,0,0,0,9.85,3.33A54.54,54.54,0,0,0,78.2,41.83Z"/><path class="cls-2" d="M115,72.31c1.55-1.67,3.52-4.31,5.79-5.81a1.57,1.57,0,0,1,2.17.45h0a1.61,1.61,0,0,1,.07,1.64c-15.33,27.24-42,37.23-71.92,25.74a6.91,6.91,0,0,0-4.21-.7,28.28,28.28,0,0,1-3.43.26.58.58,0,0,1-.49-.11.55.55,0,0,1-.12-.48l.37-5.89a.56.56,0,0,1,.59-.52h0a.74.74,0,0,1,.21,0c3.58,1.78,7.18,3.84,11,4.75,10.08,2.39,20.09,3,30.18,0C97.26,88.18,106.1,81.89,115,72.31Z"/></g></g></svg>