<svg xmlns="http://www.w3.org/2000/svg" viewBox="0 0 644.66 161.81"><defs><style>.cls-1{fill:#05adba;}.cls-2{fill:#838385;}</style></defs><g id="Capa_2" data-name="Capa 2"><g id="Capa_1-2" data-name="Capa 1"><path class="cls-1" d="M566.45,38.84q-5.58,1.35-9.13-.36A74.19,74.19,0,0,1,533,21.83a.58.58,0,0,1-.12-.67c.22-.54.65-.65,1.29-.34,6,3,25.47,12.9,31.18,7.09C576,17.13,583.76,6.34,598.49,1.33c7.21-2.46,14.51-1.16,21.93,1,23.66,7.05,27.61,35.49,22,55.84-7.21,26-15.45,50.09-29.37,73.42-10.6,17.77-32.58,40.45-54.78,25.08a15,15,0,0,1-6.33-9.27c-1.25-5.41-.5-10.11.31-14.21a58,58,0,0,1,1.95-7.22,81.61,81.61,0,0,1,3.36-8.77h0a8,8,0,0,1,1-1.61c.19-.24,1.11-1.43,1.47-1.26.12.07.14.28.15.35.06.88-3.13,16.94-.13,24.83a15.44,15.44,0,0,0,7.41,7.85,14.05,14.05,0,0,0,5.54,1.24c9.09.28,16-5.71,20.81-13a175.27,175.27,0,0,0,12.15-22c2.37-5.1,6.33-12.44,8.67-19.06,3.6-10.18,8-21,10.1-30.86,2.17-10.46,5.35-27.92.14-37.77-4.88-9.22-17.25-12.6-26.48-7.88q-1.44.73-9.61,6.64C581.46,30,574.83,35.53,566.45,38.84Z"/><path class="cls-2" d="M562.1,41.83A24.63,24.63,0,0,1,553,44.07c-4.89.23-8.88-.69-14.12-3.07a246.75,246.75,0,0,0-23.08-9.11,15.47,15.47,0,0,0-12.45.76c-6,3.19-7.47,10.62-8.09,13.74-.36,1.75-.81,4.9.08,11.39,1.08,7.91,3.09,13.12,4.86,18.32a208.42,208.42,0,0,1,10.18,49.26,91.61,91.61,0,0,1-1,23.72.38.38,0,0,1-.74,0c-1.45-9-2.89-16.55-4.06-22.3-2.41-11.87-4.21-18.77-5.12-22.14-2-7.29-8.95-24-9.15-24.53-5.68-15.9-10.81-33-.42-48.18A20.54,20.54,0,0,1,495.88,26a21.18,21.18,0,0,1,6.57-2.63c1.75-.41,8.34-1.76,17.42,1,3.68,1.12,7.66,3.31,15.62,7.69a97.07,97.07,0,0,0,10.15,5.22,60.3,60.3,0,0,0,9.85,3.33A55.77,55.77,0,0,0,562.1,41.83Z"/><path class="cls-2" d="M598.86,72.31c1.55-1.67,3.52-4.31,5.79-5.81a1.57,1.57,0,0,1,2.18.45,1.59,1.59,0,0,1,.07,1.64c-15.33,27.24-42,37.23-71.92,25.74a6.85,6.85,0,0,0-4.21-.7,30.1,30.1,0,0,1-3.43.26.6.6,0,0,1-.49-.11.58.58,0,0,1-.12-.48l.37-5.89a.56.56,0,0,1,.61-.52.54.54,0,0,1,.21,0c3.58,1.78,7.18,3.84,11,4.75,10.08,2.39,20.09,3,30.18,0C581.16,88.18,590,81.89,598.86,72.31Z"/><path class="cls-2" d="M59.37,13.82V34.73H43.23V118.3H16.07V34.73H0V13.82Z"/><path class="cls-2" d="M118.28,77H84.53V95.52c0,3.87.28,6.37.84,7.48a3.27,3.27,0,0,0,3.23,1.68q3,0,4-2.23c.66-1.48,1-4.35,1-8.61V82.55h24.71v6.32a56.49,56.49,0,0,1-1,12.2,24.78,24.78,0,0,1-4.68,9.1,22.89,22.89,0,0,1-9.32,7.26,36.2,36.2,0,0,1-14.17,2.42,41.2,41.2,0,0,1-14.58-2.39,23.32,23.32,0,0,1-9.84-6.55,23.7,23.7,0,0,1-4.87-9.17q-1.35-5-1.36-14.55v-25q0-11.23,3-17.71a20.79,20.79,0,0,1,9.93-9.94,35.1,35.1,0,0,1,15.88-3.45q11,0,18.1,4.16a22.86,22.86,0,0,1,10,11q2.86,6.88,2.87,19.33ZM92.15,63.06V56.8q0-6.64-.71-8.58a2.82,2.82,0,0,0-2.91-1.94c-1.8,0-2.92.55-3.35,1.65s-.65,4-.65,8.87v6.26Z"/><path class="cls-2" d="M184.42,65H159.84V55.12q0-5.16-.84-7a3.09,3.09,0,0,0-3.1-1.84,3,3,0,0,0-3,1.62c-.52,1.07-.77,3.48-.77,7.22v40.4a15.69,15.69,0,0,0,1.16,6.87,3.67,3.67,0,0,0,3.42,2.29,3.52,3.52,0,0,0,3.58-2.39q.93-2.39.93-9V83.06h23.23a134.26,134.26,0,0,1-.74,15.39A24.64,24.64,0,0,1,179.36,109a23.15,23.15,0,0,1-9.52,8.13,34.16,34.16,0,0,1-14.52,2.75q-11,0-17.49-3.78a20.82,20.82,0,0,1-9.13-10.58Q126,98.68,126,86.16V61.83q0-10.9,2.19-16.45t9.36-9.91q7.15-4.35,17.42-4.35t17.42,4.32q7.23,4.32,9.62,10.91T184.42,65Z"/><path class="cls-1" d="M216.24,13.82h20.32q19.69,0,26.62,1.81c4.63,1.21,8.14,3.18,10.55,5.94a18.77,18.77,0,0,1,4.52,9.19q.9,5.07.9,19.91V87.26q0,14.07-1.32,18.81a14.18,14.18,0,0,1-4.61,7.42,19.32,19.32,0,0,1-8.13,3.74,73.46,73.46,0,0,1-14.59,1.07H216.24ZM243.4,31.7v68.72q5.88,0,7.23-2.35T252,85.26V44.67a54.7,54.7,0,0,0-.45-9.1,4.36,4.36,0,0,0-2.07-2.94Q247.85,31.7,243.4,31.7Z"/><path class="cls-1" d="M347.55,77H313.81V95.52c0,3.87.27,6.37.83,7.48a3.27,3.27,0,0,0,3.23,1.68q3,0,4-2.23t1-8.61V82.55h24.71v6.32a56.49,56.49,0,0,1-1,12.2,24.74,24.74,0,0,1-4.67,9.1,22.92,22.92,0,0,1-9.33,7.26,36.11,36.11,0,0,1-14.16,2.42,41.21,41.21,0,0,1-14.59-2.39,23.44,23.44,0,0,1-9.84-6.55,23.7,23.7,0,0,1-4.87-9.17q-1.35-5-1.35-14.55v-25q0-11.23,3-17.71a20.77,20.77,0,0,1,9.94-9.94,35,35,0,0,1,15.87-3.45q11,0,18.1,4.16a22.86,22.86,0,0,1,10,11q2.88,6.88,2.87,19.33ZM321.42,63.06V56.8q0-6.64-.71-8.58a2.8,2.8,0,0,0-2.9-1.94q-2.71,0-3.36,1.65t-.64,8.87v6.26Z"/><path class="cls-1" d="M382.59,32.67l-.45,7.88a19.54,19.54,0,0,1,6.94-7.07,18.52,18.52,0,0,1,9.45-2.36q6.72,0,11,3.16a14.07,14.07,0,0,1,5.49,8q1.22,4.8,1.22,16v60H390.14V59q0-8.84-.58-10.77c-.38-1.29-1.46-1.94-3.22-1.94s-3,.74-3.49,2.23-.71,5.45-.71,11.9V118.3H356.07V32.67Z"/><path class="cls-1" d="M452.67,21.24V34.73h7V48.28h-7V94.1q0,8.45.87,9.42c.59.64,3,1,7.26,1V118.3H450.29a74.5,74.5,0,0,1-12.72-.75,13.48,13.48,0,0,1-6.71-3.42,11.32,11.32,0,0,1-3.61-6.13q-.72-3.45-.71-16.23V48.28h-5.62V34.73h5.62V21.24Z"/><text/><path class="cls-1" d="M8,134.07l2.28,15.39H6.21L6,146.69H4.56l-.24,2.76H.18l2.05-15.38ZM5.89,144q-.3-2.61-.61-6.46c-.41,2.95-.66,5.1-.77,6.46Z"/><path class="cls-1" d="M18.7,140.88H15.3v-.69a3.46,3.46,0,0,0-.1-1.1c-.06-.16-.23-.23-.5-.23a.57.57,0,0,0-.48.21,1,1,0,0,0-.16.64,3,3,0,0,0,.08.85,1.27,1.27,0,0,0,.48.59,10.55,10.55,0,0,0,1.66.95,5.91,5.91,0,0,1,2.19,1.54,3.54,3.54,0,0,1,.52,2.1,5.22,5.22,0,0,1-.4,2.32,2.69,2.69,0,0,1-1.33,1.21,5.53,5.53,0,0,1-2.26.42,6.27,6.27,0,0,1-2.5-.46A2.74,2.74,0,0,1,11.07,148a5.45,5.45,0,0,1-.39-2.35V145h3.4v.8a4,4,0,0,0,.13,1.32.49.49,0,0,0,.51.3.68.68,0,0,0,.57-.2,1.51,1.51,0,0,0,.16-.86,1.9,1.9,0,0,0-.21-1.13A17.87,17.87,0,0,0,13,143.91,4.89,4.89,0,0,1,11,142.18a4.15,4.15,0,0,1-.37-1.83,4.72,4.72,0,0,1,.4-2.23A2.58,2.58,0,0,1,12.33,137a5.87,5.87,0,0,1,2.22-.39,6.29,6.29,0,0,1,2.13.32,3.19,3.19,0,0,1,1.35.84,2.13,2.13,0,0,1,.57,1,6.84,6.84,0,0,1,.1,1.4Z"/><path class="cls-1" d="M24,136.85v12.61H20V136.85Zm0-2.77v2H20v-2Z"/><path class="cls-1" d="M33.19,140.89h-3.4v-.69a3.46,3.46,0,0,0-.1-1.1c-.07-.16-.23-.24-.5-.24a.56.56,0,0,0-.48.21,1.08,1.08,0,0,0-.16.65,3,3,0,0,0,.08.85,1.32,1.32,0,0,0,.48.59,10,10,0,0,0,1.66.94A6.15,6.15,0,0,1,33,143.64a3.54,3.54,0,0,1,.52,2.1,5.27,5.27,0,0,1-.4,2.33,2.62,2.62,0,0,1-1.33,1.2,5.53,5.53,0,0,1-2.26.42,6.28,6.28,0,0,1-2.5-.45A2.74,2.74,0,0,1,25.56,148a5.47,5.47,0,0,1-.39-2.36V145h3.4v.79a4.14,4.14,0,0,0,.13,1.33.49.49,0,0,0,.51.3.71.71,0,0,0,.57-.2,1.63,1.63,0,0,0,.16-.86,1.88,1.88,0,0,0-.21-1.13,16.18,16.18,0,0,0-2.23-1.35,4.89,4.89,0,0,1-2.06-1.73,4.2,4.2,0,0,1-.37-1.84,4.72,4.72,0,0,1,.4-2.23,2.61,2.61,0,0,1,1.35-1.1,5.87,5.87,0,0,1,2.22-.39,6,6,0,0,1,2.13.32,3.19,3.19,0,0,1,1.35.84,2.13,2.13,0,0,1,.57,1,6.73,6.73,0,0,1,.1,1.39Z"/><path class="cls-1" d="M38.56,135.18v2h1v2h-1v6.75a3.79,3.79,0,0,0,.12,1.38c.09.1.45.15,1.07.15v2H38.2a11.43,11.43,0,0,1-1.87-.11,2,2,0,0,1-1-.51,1.68,1.68,0,0,1-.53-.9,16.17,16.17,0,0,1-.1-2.39v-6.4h-.82v-2h.82v-2Z"/><path class="cls-1" d="M49.13,143.39h-5v2.73a2.79,2.79,0,0,0,.13,1.1.47.47,0,0,0,.47.25.56.56,0,0,0,.58-.33,3.53,3.53,0,0,0,.15-1.27v-1.66h3.64v.93a8.24,8.24,0,0,1-.15,1.8,3.43,3.43,0,0,1-.69,1.34,3.37,3.37,0,0,1-1.37,1.07,5.44,5.44,0,0,1-2.08.35,6.13,6.13,0,0,1-2.15-.35,3.46,3.46,0,0,1-1.45-1,3.54,3.54,0,0,1-.72-1.35,8.81,8.81,0,0,1-.2-2.14v-3.68a6.34,6.34,0,0,1,.44-2.6,3.09,3.09,0,0,1,1.47-1.47,5.13,5.13,0,0,1,2.34-.5,5.21,5.21,0,0,1,2.66.61,3.35,3.35,0,0,1,1.47,1.63,7.62,7.62,0,0,1,.42,2.84Zm-3.84-2v-.92a4.62,4.62,0,0,0-.11-1.27.41.41,0,0,0-.43-.28c-.26,0-.43.08-.49.24a5.34,5.34,0,0,0-.09,1.31v.92Z"/><path class="cls-1" d="M54.29,136.87,54.23,138a2.91,2.91,0,0,1,1-1,2.76,2.76,0,0,1,1.39-.35,2.66,2.66,0,0,1,1.62.47,2.09,2.09,0,0,1,.8,1.17,10.75,10.75,0,0,1,.18,2.36v8.84H55.4v-8.73a7.32,7.32,0,0,0-.08-1.59.44.44,0,0,0-.47-.29.48.48,0,0,0-.52.33,8.32,8.32,0,0,0-.1,1.75v8.53H50.38V136.87Z"/><path class="cls-1" d="M69.05,141.64H65.43v-1.45a2.91,2.91,0,0,0-.12-1,.54.54,0,0,0-.91,0,3.3,3.3,0,0,0-.11,1.07v5.95a2.24,2.24,0,0,0,.17,1,.54.54,0,0,0,.5.34.52.52,0,0,0,.53-.35,4.3,4.3,0,0,0,.14-1.33v-1.51h3.42a22.38,22.38,0,0,1-.11,2.26,3.64,3.64,0,0,1-.64,1.55,3.46,3.46,0,0,1-1.4,1.2,5,5,0,0,1-2.14.4,5.14,5.14,0,0,1-2.58-.56,3,3,0,0,1-1.34-1.56,8.08,8.08,0,0,1-.39-2.84v-3.58a7.15,7.15,0,0,1,.32-2.43,3.16,3.16,0,0,1,1.38-1.45,4.85,4.85,0,0,1,2.57-.64,4.93,4.93,0,0,1,2.56.63,3.17,3.17,0,0,1,1.42,1.61A8.5,8.5,0,0,1,69.05,141.64Z"/><path class="cls-1" d="M74.14,136.88v12.61h-4v-12.6Zm0-2.78v2h-4v-2Z"/><path class="cls-1" d="M79,141.76h-3.6v-.84a5.86,5.86,0,0,1,.34-2.26,3,3,0,0,1,1.35-1.4,5.06,5.06,0,0,1,2.64-.61,5.15,5.15,0,0,1,2.94.69A2.68,2.68,0,0,1,83.8,139a25.67,25.67,0,0,1,.2,4.13v6.33H80.27v-1.12A2.36,2.36,0,0,1,78,149.72a3.26,3.26,0,0,1-1.85-.57c-.56-.38-.84-1.2-.84-2.48v-1a3,3,0,0,1,.44-1.93,6.44,6.44,0,0,1,2.22-1.2,6.3,6.3,0,0,0,2-1,2.65,2.65,0,0,0,.13-1.05,3.24,3.24,0,0,0-.14-1.28.5.5,0,0,0-.49-.31.47.47,0,0,0-.49.26,5.3,5.3,0,0,0-.09,1.3Zm1.21,1.73a2.93,2.93,0,0,0-1.07,1.13,4.86,4.86,0,0,0-.14,1.31,4.09,4.09,0,0,0,.12,1.27.51.51,0,0,0,.51.28c.24,0,.4-.07.47-.22a3.39,3.39,0,0,0,.11-1.17Z"/><path class="cls-1" d="M96.93,134.11v3.08H94.55v12.3h-4v-12.3H88.19v-3.08Z"/><path class="cls-1" d="M106.42,143.42h-5v2.73a2.92,2.92,0,0,0,.12,1.1.48.48,0,0,0,.47.24.59.59,0,0,0,.59-.32,3.57,3.57,0,0,0,.15-1.27v-1.67h3.64v.93a8.74,8.74,0,0,1-.15,1.79,3.65,3.65,0,0,1-.69,1.34,3.31,3.31,0,0,1-1.38,1.07,5.24,5.24,0,0,1-2.08.36,5.94,5.94,0,0,1-2.15-.36,3.42,3.42,0,0,1-1.45-1,3.52,3.52,0,0,1-.71-1.35,8.33,8.33,0,0,1-.2-2.14v-3.68a6.25,6.25,0,0,1,.45-2.61,3,3,0,0,1,1.46-1.46,5.83,5.83,0,0,1,5,.11A3.44,3.44,0,0,1,106,138.9a7.68,7.68,0,0,1,.42,2.85Zm-1.17-9.95L102.12,136H100.2l1.67-2.57Zm-2.68,7.9v-.93a5.15,5.15,0,0,0-.1-1.26.42.42,0,0,0-.43-.28c-.27,0-.43.08-.5.24a5.24,5.24,0,0,0-.09,1.3v.93Z"/><path class="cls-1" d="M116.15,141.66h-3.61V140.2a2.85,2.85,0,0,0-.13-1,.45.45,0,0,0-.45-.27.46.46,0,0,0-.45.24,3,3,0,0,0-.11,1.06v6a2.36,2.36,0,0,0,.17,1,.55.55,0,0,0,.51.34.51.51,0,0,0,.52-.35,4,4,0,0,0,.14-1.33v-1.5h3.42a17.64,17.64,0,0,1-.11,2.26,3.61,3.61,0,0,1-.63,1.55,3.42,3.42,0,0,1-1.41,1.2,6.06,6.06,0,0,1-4.71-.16,3.07,3.07,0,0,1-1.34-1.55,8,8,0,0,1-.39-2.85v-3.58a7,7,0,0,1,.32-2.42,3.13,3.13,0,0,1,1.38-1.46,5.46,5.46,0,0,1,5.13,0,3,3,0,0,1,1.41,1.6A8,8,0,0,1,116.15,141.66Z"/><path class="cls-1" d="M121.2,136.9l-.06,1.16a2.67,2.67,0,0,1,2.41-1.39,2.61,2.61,0,0,1,1.61.47,2.06,2.06,0,0,1,.81,1.17,10.75,10.75,0,0,1,.18,2.36v8.84h-3.84v-8.73a9,9,0,0,0-.08-1.59.44.44,0,0,0-.48-.29.47.47,0,0,0-.51.33,8,8,0,0,0-.11,1.75v8.53h-3.84V136.9Z"/><path class="cls-1" d="M131.43,136.9v12.61h-3.95V136.9Zm0-2.77v2h-4v-2Z"/><path class="cls-1" d="M141.29,141.67h-3.62v-1.46a2.67,2.67,0,0,0-.13-1,.45.45,0,0,0-.45-.27.46.46,0,0,0-.45.24,3,3,0,0,0-.11,1.06v5.95a2.36,2.36,0,0,0,.17,1,.55.55,0,0,0,.51.34.53.53,0,0,0,.53-.35,4.39,4.39,0,0,0,.13-1.33v-1.5h3.42a17.53,17.53,0,0,1-.11,2.26,3.49,3.49,0,0,1-.63,1.55,3.46,3.46,0,0,1-1.4,1.2,5,5,0,0,1-2.14.4,5.12,5.12,0,0,1-2.58-.55,3,3,0,0,1-1.34-1.56,8.18,8.18,0,0,1-.39-2.85V141.2a7,7,0,0,1,.32-2.42,3.18,3.18,0,0,1,1.38-1.46,5.46,5.46,0,0,1,5.13,0,3.15,3.15,0,0,1,1.42,1.6A8.54,8.54,0,0,1,141.29,141.67Z"/><path class="cls-1" d="M145.86,141.79h-3.61V141a6.09,6.09,0,0,1,.33-2.26,3.13,3.13,0,0,1,1.36-1.4,6.29,6.29,0,0,1,5.57.08,2.69,2.69,0,0,1,1.19,1.7,26.7,26.7,0,0,1,.2,4.12v6.33h-3.74V148.4a2.47,2.47,0,0,1-.9,1,2.58,2.58,0,0,1-1.33.34,3.23,3.23,0,0,1-1.85-.57c-.56-.38-.84-1.2-.84-2.48v-1a3,3,0,0,1,.45-1.93,6.46,6.46,0,0,1,2.21-1.2,6.29,6.29,0,0,0,2-1,2.65,2.65,0,0,0,.13-1.05,3.68,3.68,0,0,0-.14-1.28.52.52,0,0,0-.49-.3c-.26,0-.42.08-.49.25a5.35,5.35,0,0,0-.09,1.3Zm1.21,1.73a2.93,2.93,0,0,0-1.07,1.13,4.51,4.51,0,0,0-.15,1.32,4,4,0,0,0,.13,1.26.51.51,0,0,0,.51.28c.24,0,.4-.07.47-.22a3.68,3.68,0,0,0,.11-1.17Z"/><path class="cls-1" d="M164.35,143.45h-5v2.73a2.79,2.79,0,0,0,.13,1.1.47.47,0,0,0,.47.25.59.59,0,0,0,.59-.33,3.83,3.83,0,0,0,.14-1.26v-1.67h3.64v.93a9.06,9.06,0,0,1-.14,1.8,3.65,3.65,0,0,1-.69,1.34,3.38,3.38,0,0,1-1.38,1.07,5.25,5.25,0,0,1-2.08.35,6.17,6.17,0,0,1-2.15-.35,3.51,3.51,0,0,1-1.45-1,3.68,3.68,0,0,1-.72-1.35,9,9,0,0,1-.19-2.15v-3.67a6.18,6.18,0,0,1,.45-2.61,3,3,0,0,1,1.46-1.46,5.87,5.87,0,0,1,5,.1,3.35,3.35,0,0,1,1.47,1.63,7.42,7.42,0,0,1,.42,2.84Zm-3.84-2.06v-.92a4.53,4.53,0,0,0-.11-1.26.41.41,0,0,0-.42-.29c-.27,0-.43.08-.5.24a5.4,5.4,0,0,0-.09,1.31v.92Z"/><path class="cls-1" d="M169.52,136.92l-.07,1.16a2.91,2.91,0,0,1,1-1,2.76,2.76,0,0,1,1.39-.35,2.66,2.66,0,0,1,1.62.47,2.06,2.06,0,0,1,.81,1.17,11,11,0,0,1,.17,2.37v8.83h-3.84V140.8a7.75,7.75,0,0,0-.09-1.59c-.06-.19-.21-.28-.47-.28a.48.48,0,0,0-.52.32,8.45,8.45,0,0,0-.1,1.76v8.52h-3.83V136.92Z"/><path class="cls-1" d="M179.33,134.15H186v3.08h-2.67v2.92h2.5v2.93h-2.5v3.39h2.93v3.08h-6.93Z"/><path class="cls-1" d="M196,136.93v14.41h-3.84v-2.82a2.82,2.82,0,0,1-1,1,2.67,2.67,0,0,1-1.16.22,2.75,2.75,0,0,1-1.67-.48,2.32,2.32,0,0,1-.89-1.23,8.65,8.65,0,0,1-.23-2.31v-5.56a7.64,7.64,0,0,1,.17-1.92,2,2,0,0,1,.82-1.1,2.59,2.59,0,0,1,1.55-.47,2.76,2.76,0,0,1,1.33.33,3.48,3.48,0,0,1,1.11,1l.06-1.08Zm-3.84,3.43a3.41,3.41,0,0,0-.13-1.13.46.46,0,0,0-.46-.29.43.43,0,0,0-.44.25,3.75,3.75,0,0,0-.12,1.17V146a4.08,4.08,0,0,0,.12,1.28.51.51,0,0,0,.91,0,4.23,4.23,0,0,0,.11-1.22Z"/><path class="cls-1" d="M206.17,136.94v12.61h-3.91l.07-1a2.72,2.72,0,0,1-1,.95,2.66,2.66,0,0,1-1.34.32,3.1,3.1,0,0,1-1.44-.3,2.12,2.12,0,0,1-.84-.81,2.92,2.92,0,0,1-.33-1,20.29,20.29,0,0,1-.07-2.17v-8.51h3.83v8.58a8.85,8.85,0,0,0,.09,1.74c.06.19.22.28.49.28s.45-.1.51-.29a11.32,11.32,0,0,0,.08-1.83v-8.48Z"/><path class="cls-1" d="M211.5,136.94v12.61h-4V136.94Zm0-2.77v2h-3.95v-2Z"/><path class="cls-1" d="M216.78,136.94l-.06,1.12a3.54,3.54,0,0,1,1.13-1,2.81,2.81,0,0,1,1.35-.33,2.52,2.52,0,0,1,1.54.48,2,2,0,0,1,.81,1.1,9.56,9.56,0,0,1,.16,2.13v5.31a10.54,10.54,0,0,1-.2,2.45,2.08,2.08,0,0,1-.84,1.16,2.62,2.62,0,0,1-1.53.43,2.75,2.75,0,0,1-1.32-.33,3.93,3.93,0,0,1-1.11-1v2.89h-3.84V136.94Zm1.1,3.67a6.18,6.18,0,0,0-.09-1.42c-.06-.16-.21-.24-.47-.24a.46.46,0,0,0-.49.28,4.8,4.8,0,0,0-.11,1.38v5.23a4.87,4.87,0,0,0,.12,1.42.47.47,0,0,0,.49.29c.25,0,.4-.09.46-.26a5.27,5.27,0,0,0,.09-1.27Z"/><path class="cls-1" d="M226.41,141.83h-3.6V141a5.84,5.84,0,0,1,.34-2.25,3,3,0,0,1,1.35-1.4,5.06,5.06,0,0,1,2.64-.61,5.15,5.15,0,0,1,2.94.69,2.65,2.65,0,0,1,1.18,1.69,25.67,25.67,0,0,1,.2,4.13v6.33h-3.74v-1.13a2.51,2.51,0,0,1-.9,1,2.57,2.57,0,0,1-1.33.33,3.3,3.3,0,0,1-1.85-.56c-.56-.38-.84-1.2-.84-2.48v-1a3,3,0,0,1,.45-1.93,6.44,6.44,0,0,1,2.22-1.2,6,6,0,0,0,2-1,2.59,2.59,0,0,0,.13-1,3.55,3.55,0,0,0-.14-1.29.51.51,0,0,0-.49-.3.48.48,0,0,0-.49.25,5.46,5.46,0,0,0-.09,1.31Zm1.21,1.73a2.93,2.93,0,0,0-1.07,1.13,4.44,4.44,0,0,0-.14,1.31,4.13,4.13,0,0,0,.12,1.27.51.51,0,0,0,.51.28c.24,0,.4-.07.47-.22a3.71,3.71,0,0,0,.11-1.18Z"/><path class="cls-1" d="M236.58,137l-.07,1.2a3.19,3.19,0,0,1,1.06-1.07,2.84,2.84,0,0,1,3.83,1.07,3.48,3.48,0,0,1,1.1-1.07,2.89,2.89,0,0,1,3,.12,2,2,0,0,1,.82,1.17,9.25,9.25,0,0,1,.18,2.24v9h-3.72v-8.22a10.66,10.66,0,0,0-.11-2,.48.48,0,0,0-.51-.38.5.5,0,0,0-.52.38,9.38,9.38,0,0,0-.12,2v8.22h-3.72v-8a14.74,14.74,0,0,0-.09-2.22.45.45,0,0,0-.5-.37.56.56,0,0,0-.43.19.75.75,0,0,0-.2.48c0,.18,0,.58,0,1.19v8.74h-3.72V137Z"/><path class="cls-1" d="M251.74,137v12.61h-3.95V137Zm0-2.78v2h-4v-2Z"/><path class="cls-1" d="M261.81,143.49h-5v2.73a3.12,3.12,0,0,0,.12,1.1.49.49,0,0,0,.48.25.57.57,0,0,0,.58-.33,3.53,3.53,0,0,0,.15-1.27v-1.66h3.64v.93a8.08,8.08,0,0,1-.15,1.79,3.65,3.65,0,0,1-.69,1.34,3.35,3.35,0,0,1-1.37,1.07,5.3,5.3,0,0,1-2.09.36,6.17,6.17,0,0,1-2.15-.35,3.32,3.32,0,0,1-2.16-2.32A8.81,8.81,0,0,1,253,145v-3.68a6.25,6.25,0,0,1,.45-2.61,3.09,3.09,0,0,1,1.46-1.46,5.16,5.16,0,0,1,2.34-.51,5.22,5.22,0,0,1,2.67.62,3.47,3.47,0,0,1,1.47,1.62,7.72,7.72,0,0,1,.42,2.85ZM258,141.44v-.92a4.72,4.72,0,0,0-.1-1.27.41.41,0,0,0-.43-.28c-.27,0-.43.08-.49.24a4.68,4.68,0,0,0-.1,1.31v.92Z"/><path class="cls-1" d="M267,137l-.07,1.16a2.83,2.83,0,0,1,1-1,2.7,2.7,0,0,1,1.4-.35,2.63,2.63,0,0,1,1.61.47,2.06,2.06,0,0,1,.81,1.17,10.75,10.75,0,0,1,.18,2.36v8.84h-3.83v-8.73a9,9,0,0,0-.08-1.58.44.44,0,0,0-.48-.29.47.47,0,0,0-.51.33,8,8,0,0,0-.11,1.75v8.52h-3.84V137Z"/><path class="cls-1" d="M277.29,135.29v2h1v2h-1V146a3.67,3.67,0,0,0,.13,1.38c.09.1.44.15,1.07.15v2h-1.55a11.34,11.34,0,0,1-1.87-.11,2,2,0,0,1-1-.51,1.68,1.68,0,0,1-.53-.9,16.17,16.17,0,0,1-.1-2.39v-6.4h-.83v-2h.83v-2Z"/><path class="cls-1" d="M287.85,141.4v3.09a13.31,13.31,0,0,1-.17,2.49,3.64,3.64,0,0,1-.73,1.49,3.29,3.29,0,0,1-1.44,1,5.74,5.74,0,0,1-2,.33,7.12,7.12,0,0,1-2.16-.28,2.9,2.9,0,0,1-1.37-.85,3.24,3.24,0,0,1-.7-1.37,10.17,10.17,0,0,1-.21-2.41v-3.23a8,8,0,0,1,.38-2.74,3.19,3.19,0,0,1,1.37-1.59,4.81,4.81,0,0,1,2.53-.59,5.73,5.73,0,0,1,2.22.38,3.62,3.62,0,0,1,1.43,1,3.83,3.83,0,0,1,.69,1.28A8.12,8.12,0,0,1,287.85,141.4Zm-3.84-1a4.27,4.27,0,0,0-.1-1.22.53.53,0,0,0-.9,0,3.7,3.7,0,0,0-.12,1.22v5.69a4,4,0,0,0,.11,1.17.52.52,0,0,0,.9,0,3.26,3.26,0,0,0,.11-1.06Z"/><path class="cls-1" d="M305,134.21v15.38h-3.5V139.21l-1.4,10.38h-2.48l-1.46-10.15v10.15h-3.49V134.2h5.18c.15.92.31,2,.47,3.27l.57,3.91.92-7.18Z"/><path class="cls-1" d="M315.19,143.52h-5v2.73a3,3,0,0,0,.13,1.1.47.47,0,0,0,.47.25.59.59,0,0,0,.59-.33,3.6,3.6,0,0,0,.14-1.27v-1.66h3.64v.93a9.06,9.06,0,0,1-.14,1.8,3.73,3.73,0,0,1-.69,1.34,3.4,3.4,0,0,1-1.38,1.07,5.44,5.44,0,0,1-2.08.35,6.17,6.17,0,0,1-2.15-.35,3.28,3.28,0,0,1-2.16-2.32,8.33,8.33,0,0,1-.2-2.14v-3.67a6.18,6.18,0,0,1,.45-2.61,3,3,0,0,1,1.46-1.46,5.87,5.87,0,0,1,5,.1,3.35,3.35,0,0,1,1.47,1.63,7.4,7.4,0,0,1,.43,2.84Zm-1.17-10-3.13,2.57H309l1.67-2.57Zm-2.68,7.89v-.92a4.53,4.53,0,0,0-.11-1.26.4.4,0,0,0-.42-.29c-.27,0-.43.08-.5.24a5.4,5.4,0,0,0-.09,1.31v.92Z"/><path class="cls-1" d="M325.17,134.22V149.6h-3.84v-.91a3.92,3.92,0,0,1-1.16.85,3,3,0,0,1-1.27.29,2.61,2.61,0,0,1-1.55-.47,2.1,2.1,0,0,1-.84-1.09,7.47,7.47,0,0,1-.19-2v-5.9a8.17,8.17,0,0,1,.18-2.06,2.13,2.13,0,0,1,.85-1.07,2.73,2.73,0,0,1,1.59-.46,3.13,3.13,0,0,1,2.38,1v-3.57Zm-3.84,5.94a2.66,2.66,0,0,0-.11-.93.47.47,0,0,0-.47-.23.5.5,0,0,0-.47.21,2.6,2.6,0,0,0-.11.95v6.18a2.7,2.7,0,0,0,.12,1,.43.43,0,0,0,.43.24.5.5,0,0,0,.5-.27,4.26,4.26,0,0,0,.12-1.32Z"/><path class="cls-1" d="M330.5,137V149.6h-3.95V137Zm0-2.77v2h-3.95v-2Z"/><path class="cls-1" d="M340.36,141.76h-3.62V140.3a2.88,2.88,0,0,0-.13-1,.53.53,0,0,0-.9,0,2.88,2.88,0,0,0-.12,1.06v5.95a2.36,2.36,0,0,0,.17,1,.54.54,0,0,0,.51.34.51.51,0,0,0,.52-.35,4,4,0,0,0,.14-1.33v-1.5h3.42a17.82,17.82,0,0,1-.11,2.27,3.58,3.58,0,0,1-.63,1.54,3.42,3.42,0,0,1-1.41,1.2,5,5,0,0,1-2.13.4,5.1,5.1,0,0,1-2.58-.55,3,3,0,0,1-1.34-1.56,7.92,7.92,0,0,1-.4-2.85v-3.58a6.8,6.8,0,0,1,.32-2.42,3.18,3.18,0,0,1,1.38-1.46,4.82,4.82,0,0,1,2.56-.64,4.88,4.88,0,0,1,2.57.64A3.09,3.09,0,0,1,340,139,8.31,8.31,0,0,1,340.36,141.76Z"/><path class="cls-1" d="M350.19,141.43v3.09A13.31,13.31,0,0,1,350,147a3.54,3.54,0,0,1-.74,1.49,3.34,3.34,0,0,1-1.44,1,5.7,5.7,0,0,1-2,.33,7.43,7.43,0,0,1-2.15-.28,3,3,0,0,1-1.38-.85,3.41,3.41,0,0,1-.69-1.37,10.23,10.23,0,0,1-.21-2.41V141.7a8,8,0,0,1,.38-2.74,3.19,3.19,0,0,1,1.37-1.59,4.81,4.81,0,0,1,2.53-.6,5.72,5.72,0,0,1,2.22.39,3.7,3.7,0,0,1,1.43,1,3.54,3.54,0,0,1,.68,1.28A7.51,7.51,0,0,1,350.19,141.43Zm-3.84-1a4.22,4.22,0,0,0-.1-1.22.43.43,0,0,0-.45-.25.45.45,0,0,0-.46.25,4.09,4.09,0,0,0-.11,1.22v5.69a3.55,3.55,0,0,0,.11,1.16.52.52,0,0,0,.9,0,3.34,3.34,0,0,0,.11-1.07Z"/><path class="cls-1" d="M364.14,143.24c0,1.55,0,2.64-.12,3.29a3.65,3.65,0,0,1-2.23,3,5.62,5.62,0,0,1-2.28.43,5.74,5.74,0,0,1-2.22-.41,3.49,3.49,0,0,1-1.58-1.21,3.68,3.68,0,0,1-.72-1.75c-.07-.64-.11-1.75-.11-3.33v-2.63c0-1.55,0-2.64.11-3.29a3.68,3.68,0,0,1,.69-1.76,3.64,3.64,0,0,1,1.55-1.22,5.59,5.59,0,0,1,2.28-.43,5.74,5.74,0,0,1,2.22.41,3.61,3.61,0,0,1,1.58,1.21,3.56,3.56,0,0,1,.71,1.76,30.75,30.75,0,0,1,.12,3.32Zm-4-5.05a4.76,4.76,0,0,0-.12-1.38.47.47,0,0,0-.49-.3.55.55,0,0,0-.48.25,3.42,3.42,0,0,0-.17,1.43v7.18A7.21,7.21,0,0,0,359,147a.48.48,0,0,0,.51.32A.49.49,0,0,0,360,147a7.55,7.55,0,0,0,.11-1.72Z"/><path class="cls-1" d="M374.25,134.24v15.38H370.4v-.91a3.8,3.8,0,0,1-1.16.85,3,3,0,0,1-1.27.29,2.63,2.63,0,0,1-1.55-.47,2.2,2.2,0,0,1-.84-1.09,8,8,0,0,1-.18-2v-5.9a7.66,7.66,0,0,1,.19-2.06,2,2,0,0,1,.85-1.07,2.75,2.75,0,0,1,1.58-.46,3.26,3.26,0,0,1,1.31.26,3.21,3.21,0,0,1,1.08.77v-3.57Zm-3.84,5.95a2.31,2.31,0,0,0-.12-.93.59.59,0,0,0-.93,0,2.36,2.36,0,0,0-.12,1v6.17a2.74,2.74,0,0,0,.11,1,.43.43,0,0,0,.44.25.49.49,0,0,0,.49-.27,4.34,4.34,0,0,0,.12-1.33Z"/><path class="cls-1" d="M384.31,141.45v3.09a12.38,12.38,0,0,1-.18,2.49,3.37,3.37,0,0,1-.73,1.48,3.27,3.27,0,0,1-1.44,1,5.7,5.7,0,0,1-2,.33,7.35,7.35,0,0,1-2.15-.29,3,3,0,0,1-1.38-.84,3.35,3.35,0,0,1-.69-1.37,10.28,10.28,0,0,1-.21-2.41v-3.23a8,8,0,0,1,.38-2.75,3.16,3.16,0,0,1,1.37-1.58,4.81,4.81,0,0,1,2.53-.6,5.72,5.72,0,0,1,2.22.39,3.43,3.43,0,0,1,2.11,2.27A7.65,7.65,0,0,1,384.31,141.45Zm-3.84-.95a4.74,4.74,0,0,0-.1-1.23.44.44,0,0,0-.45-.25.47.47,0,0,0-.46.25,4.14,4.14,0,0,0-.11,1.22v5.7a3.6,3.6,0,0,0,.11,1.16.44.44,0,0,0,.45.27.45.45,0,0,0,.45-.25,3.22,3.22,0,0,0,.11-1.06Z"/><path class="cls-1" d="M389.48,137l-.07,1.16a2.91,2.91,0,0,1,1-1,2.79,2.79,0,0,1,1.4-.34,2.65,2.65,0,0,1,1.61.46,2.05,2.05,0,0,1,.81,1.18,10.69,10.69,0,0,1,.18,2.36v8.83h-3.84V140.9a7.75,7.75,0,0,0-.09-1.59c-.05-.19-.21-.28-.47-.28a.47.47,0,0,0-.51.33,7.35,7.35,0,0,0-.11,1.75v8.52h-3.84V137Z"/><path class="cls-1" d="M399.8,135.35v2h1v2h-1v6.74a3.55,3.55,0,0,0,.13,1.39,2.15,2.15,0,0,0,1.07.14v2h-1.55a10,10,0,0,1-1.87-.12,2,2,0,0,1-1-.5,1.62,1.62,0,0,1-.53-.9,15.72,15.72,0,0,1-.11-2.39v-6.41h-.83v-2H396v-2Z"/><path class="cls-1" d="M410.36,141.46v3.09a13.38,13.38,0,0,1-.17,2.49,3.45,3.45,0,0,1-.74,1.48,3.27,3.27,0,0,1-1.44,1,5.69,5.69,0,0,1-2,.33,7.1,7.1,0,0,1-2.16-.29,2.81,2.81,0,0,1-1.37-.84,3.3,3.3,0,0,1-.7-1.37,10.23,10.23,0,0,1-.21-2.41v-3.23a7.92,7.92,0,0,1,.38-2.74,3.19,3.19,0,0,1,1.37-1.59,4.81,4.81,0,0,1,2.53-.6,5.72,5.72,0,0,1,2.22.39,3.59,3.59,0,0,1,1.43,1,3.79,3.79,0,0,1,.69,1.27A8.22,8.22,0,0,1,410.36,141.46Zm-3.84-1a4.18,4.18,0,0,0-.1-1.22.52.52,0,0,0-.9,0,3.62,3.62,0,0,0-.12,1.22v5.69a3.92,3.92,0,0,0,.11,1.16.45.45,0,0,0,.45.27.44.44,0,0,0,.45-.24,3.34,3.34,0,0,0,.11-1.07Z"/><path class="cls-1" d="M415.58,134.26v15.38h-3.95V134.26Z"/><path class="cls-1" d="M425.64,141.47v3.08a12.43,12.43,0,0,1-.18,2.5,3.37,3.37,0,0,1-.73,1.48,3.27,3.27,0,0,1-1.44,1,5.71,5.71,0,0,1-2,.32,7.06,7.06,0,0,1-2.15-.28,3.05,3.05,0,0,1-1.38-.84,3.35,3.35,0,0,1-.69-1.37,10.28,10.28,0,0,1-.21-2.41v-3.23a8,8,0,0,1,.38-2.75,3.12,3.12,0,0,1,1.37-1.58,4.81,4.81,0,0,1,2.53-.6,5.92,5.92,0,0,1,2.22.38,3.71,3.71,0,0,1,1.43,1,3.5,3.5,0,0,1,.68,1.27A7.6,7.6,0,0,1,425.64,141.47Zm-1.14-7.85-3.13,2.57h-1.92l1.67-2.57Zm-2.7,6.89a4.7,4.7,0,0,0-.1-1.22.44.44,0,0,0-.45-.25.47.47,0,0,0-.46.25,4.14,4.14,0,0,0-.11,1.22v5.7a3.6,3.6,0,0,0,.11,1.16.44.44,0,0,0,.45.27.45.45,0,0,0,.45-.25,3.26,3.26,0,0,0,.11-1.06Z"/><path class="cls-1" d="M435.63,137v9.71a21.68,21.68,0,0,1-.09,2.55,2.6,2.6,0,0,1-.64,1.21,3.47,3.47,0,0,1-1.54,1,7.82,7.82,0,0,1-2.47.34,6.07,6.07,0,0,1-2.95-.63,2.63,2.63,0,0,1-1.15-2.45h3.73c0,.55.2.83.61.83a.61.61,0,0,0,.58-.25,2.75,2.75,0,0,0,.14-1.08v-.95a3.87,3.87,0,0,1-1,.68,3,3,0,0,1-1.15.22,3.22,3.22,0,0,1-1.7-.41,2.18,2.18,0,0,1-.92-1.1,6.12,6.12,0,0,1-.24-1.94v-4.57a4.05,4.05,0,0,1,.65-2.59,2.37,2.37,0,0,1,2-.79,2.91,2.91,0,0,1,1.32.3,3.24,3.24,0,0,1,1.06.88l.27-1Zm-3.85,3.35a3.94,3.94,0,0,0-.1-1.11.45.45,0,0,0-.45-.23.49.49,0,0,0-.47.27,2.78,2.78,0,0,0-.13,1.07v4.23a3.48,3.48,0,0,0,.11,1.1.42.42,0,0,0,.44.25.47.47,0,0,0,.49-.3,4.9,4.9,0,0,0,.11-1.38Z"/><path class="cls-1" d="M441,137.05v12.6H437V137Zm0-2.78v2h-4v-2Z"/><path class="cls-1" d="M450.81,141.81h-3.62v-1.45a2.69,2.69,0,0,0-.13-1,.45.45,0,0,0-.45-.27.46.46,0,0,0-.45.24,3,3,0,0,0-.11,1.07v5.94a2.44,2.44,0,0,0,.17,1,.56.56,0,0,0,.51.33.53.53,0,0,0,.53-.35,4.35,4.35,0,0,0,.13-1.33v-1.5h3.42a17.82,17.82,0,0,1-.11,2.27,3.54,3.54,0,0,1-.63,1.55,3.43,3.43,0,0,1-1.4,1.19,5,5,0,0,1-2.14.41,5.12,5.12,0,0,1-2.58-.56,3,3,0,0,1-1.34-1.56,8.18,8.18,0,0,1-.39-2.85v-3.58a7,7,0,0,1,.32-2.42,3.18,3.18,0,0,1,1.38-1.46,5.46,5.46,0,0,1,5.13,0,3.13,3.13,0,0,1,1.42,1.61A8.47,8.47,0,0,1,450.81,141.81Z"/><path class="cls-1" d="M460.63,141.48v3.09a13.51,13.51,0,0,1-.17,2.5,3.56,3.56,0,0,1-.74,1.48,3.28,3.28,0,0,1-1.43,1,5.74,5.74,0,0,1-2,.33,7.12,7.12,0,0,1-2.16-.28,2.9,2.9,0,0,1-1.37-.85,3.24,3.24,0,0,1-.7-1.37,10.17,10.17,0,0,1-.21-2.41v-3.23a8,8,0,0,1,.38-2.74,3.19,3.19,0,0,1,1.37-1.59,4.72,4.72,0,0,1,2.53-.59,5.73,5.73,0,0,1,2.22.38,3.62,3.62,0,0,1,1.43,1,3.83,3.83,0,0,1,.69,1.28A8.12,8.12,0,0,1,460.63,141.48Zm-3.84-.95a4.27,4.27,0,0,0-.1-1.22.53.53,0,0,0-.9,0,3.66,3.66,0,0,0-.12,1.22v5.69a4,4,0,0,0,.11,1.17.52.52,0,0,0,.9,0,3.26,3.26,0,0,0,.11-1.06Z"/></g></g></svg>