<svg xmlns="http://www.w3.org/2000/svg" viewBox="0 0 1431 1013"><defs><style>.cls-1{fill:#fff;}.cls-2{fill:#ccc;}.cls-3{fill:#28ceca;}.cls-4{opacity:0.2;}.cls-5{fill:#05adba;}.cls-6{fill:#838385;}</style></defs><g id="Capa_2" data-name="Capa 2"><g id="Capa_1-2" data-name="Capa 1"><g id="Capa_2-2" data-name="Capa 2"><g id="Capa_1-2-2" data-name="Capa 1-2"><rect class="cls-1" x="4.45" y="0.85" width="1426.29" height="1012.15"/><path class="cls-2" d="M89.22,0a23.23,23.23,0,0,1,.22,5C87.85,31.66,80.37,58.77,73.3,84.5c-2.23,8.15,8.66,5.6,12.57,5.19Q117.84,86.36,185,79q62.61-6.89,203.51-21.41C504.82,45.57,621.44,34.74,738.18,28c7.83-.46,18.34-1.66,27.58-1.91.37,0,.52.16.45.53A1,1,0,0,1,766,27a1.34,1.34,0,0,1-.86.3c-20.62,1.67-41,4.45-61.52,6.78-96.49,11-196,23.68-291.1,39.42q-78.15,12.91-155,32.07a907.88,907.88,0,0,0-111.3,35.49,495.62,495.62,0,0,0-141.93,85,5.09,5.09,0,0,0-1.82,4.71,1.13,1.13,0,0,1-1,1.25h0a1.2,1.2,0,0,1-.62-.11A1.89,1.89,0,0,1,0,230.65V2.41A4.91,4.91,0,0,0,.5,0Z"/><path class="cls-3" d="M92.84.13l950.9.06m.06,0a.11.11,0,0,0-.06-.07q-150.37-.21,327.51.1c18,0,36.79.32,55.21.15a.46.46,0,0,1,.52.39.29.29,0,0,1,0,.13V21.2q-10.83.09-21.56-.2c-1.84,0-3.59-.88-5.28-.82-7,.24-14.69-1.11-20.47-1.35-79.72-3.22-159.45-6.06-239.26-6.38q-245-1-489.42,18.31C462,45.44,273.49,66.19,85,86.94c-2.26.25-4.91,0-7.14.29-1.48.16-2-.48-1.63-1.92C83.84,57.39,91.75,28.07,92.84.13Z"/><path class="cls-2" d="M1431,779.56v232.66a.46.46,0,0,1-.4.53h-.13l-89.69.25-3.84-.61,3.14.11c.39,0,.57-.17.54-.55-.73-11,1.58-23.8,3.66-33.9q5.12-24.74,12.8-52.74c1-3.67-5-4.57-7.26-4.32C1141,943.75,932.15,966.82,722.58,981.68q-8.94.65-17.88,1.05c-13.06.6-27.37,2-41.19,2.07a.94.94,0,0,1-.7-.24c-.29-.26-.24-.4.15-.43,13.16-.89,29.08-3,39.21-4.13,112.77-12.47,225.56-26.63,337.35-46.14q63.7-11.11,126.47-26.64c56.16-13.88,111.32-31.61,163.14-57.62a466.28,466.28,0,0,0,95.23-63.45c2-1.75,3.67-2.19,3.1-5.58a.86.86,0,0,1,.38-.87A3.62,3.62,0,0,1,1431,779.56Z"/><path class="cls-3" d="M1338.37,1012.09l3.84.61L4.45,1013V994.69l.21-4a.89.89,0,0,1,.93-.84c132,6.9,264.33,10,396.55,8,1.08,0,2.59-1,3.89-.94q18.81.21,37.61-.59c6-.25,13.82.34,20.33.17q125.09-3.22,249.92-11.66c212.06-14.34,423.38-38.2,634.64-61.15a40.67,40.67,0,0,1,4.68-.27,1.22,1.22,0,0,1,1.2,1.21,1.61,1.61,0,0,1,0,.31q-3.83,14.45-7.4,28.39a390.19,390.19,0,0,0-9.69,55.87C1337.1,1011,1337.46,1012,1338.37,1012.09Z"/></g></g></g><g id="Capa_2-3" data-name="Capa 2"><g class="cls-4"><path class="cls-5" d="M887.11,287q-26.54,6.42-43.41-1.71a352.77,352.77,0,0,1-115.62-79.16,2.74,2.74,0,0,1-.57-3.18c1-2.57,3.09-3.09,6.13-1.62,28.53,14.26,121.09,61.33,148.24,33.71,50.63-51.25,87.52-102.55,157.55-126.37,34.28-11.69,69-5.51,104.26,4.76C1256.17,147,1275,282.19,1248.28,378.94,1214,502.55,1174.83,617.08,1108.65,728c-50.39,84.48-154.89,192.31-260.43,119.24a71.33,71.33,0,0,1-30.1-44.08c-5.94-25.72-2.37-48.06,1.48-67.55a273.5,273.5,0,0,1,9.27-34.33,388.31,388.31,0,0,1,16-41.69h0a38.14,38.14,0,0,1,4.76-7.66c.9-1.14,5.27-6.79,7-6,.57.34.67,1.33.72,1.67.28,4.18-14.88,80.53-.62,118A73.36,73.36,0,0,0,891.91,803a66.68,66.68,0,0,0,26.34,5.9c43.21,1.33,76.06-27.15,98.93-61.81a832.27,832.27,0,0,0,57.76-104.59c11.27-24.24,30.1-59.14,41.22-90.61,17.12-48.4,38-99.84,48-146.72,10.32-49.72,25.43-132.73.66-179.56-23.2-43.83-82-59.9-125.89-37.46q-6.84,3.46-45.68,31.56C958.47,245,927,271.3,887.11,287Z"/><path class="cls-6" d="M866.42,301.26a117,117,0,0,1-43.26,10.64c-23.25,1.1-42.22-3.28-67.13-14.59A1172.26,1172.26,0,0,0,646.31,254a73.52,73.52,0,0,0-59.19,3.61c-28.53,15.17-35.52,50.49-38.46,65.32-1.72,8.32-3.86,23.3.38,54.15,5.13,37.61,14.69,62.38,23.1,87.1a990.8,990.8,0,0,1,48.4,234.19,435.65,435.65,0,0,1-4.76,112.77,1.8,1.8,0,0,1-3.51,0c-6.9-42.79-13.74-78.68-19.31-106-11.45-56.43-20-89.23-24.34-105.25-9.51-34.66-42.55-114.1-43.5-116.62-27-75.6-51.39-156.89-2-229.06A97.43,97.43,0,0,1,551.6,226a100.84,100.84,0,0,1,31.24-12.51c8.32-2,39.65-8.36,82.82,4.76,17.49,5.32,36.41,15.73,74.26,36.56a459.37,459.37,0,0,0,48.25,24.81A286.45,286.45,0,0,0,835,295.46,265.92,265.92,0,0,0,866.42,301.26Z"/><path class="cls-6" d="M1041.19,446.16c7.37-7.94,16.73-20.49,27.53-27.62a7.47,7.47,0,0,1,10.34,2.11l0,0a7.57,7.57,0,0,1,.33,7.8c-72.88,129.5-199.67,177-341.92,122.37a32.58,32.58,0,0,0-20-3.33,143.67,143.67,0,0,1-16.31,1.24,2.89,2.89,0,0,1-2.33-.52,2.78,2.78,0,0,1-.57-2.29L700,518a2.66,2.66,0,0,1,2.83-2.48h.07a2.41,2.41,0,0,1,1,0c17,8.46,34.13,18.25,52.29,22.58,47.93,11.36,95.51,14.26,143.48,0C957,521.61,999.07,491.71,1041.19,446.16Z"/></g></g></g></svg>