<svg xmlns="http://www.w3.org/2000/svg" viewBox="0 0 1431 1013"><defs><style>.cls-1{fill:#fff;}.cls-2{fill:#ccc;}.cls-3{fill:#28ceca;}.cls-4{opacity:0.2;}.cls-5{fill:#05adba;}.cls-6{fill:#838385;}</style></defs><g id="Capa_2" data-name="Capa 2"><g id="Capa_1-2" data-name="Capa 1"><g id="Capa_2-2" data-name="Capa 2"><g id="Capa_1-2-2" data-name="Capa 1-2"><rect class="cls-1" x="4.45" y="0.85" width="1426.29" height="1012.15"/><path class="cls-2" d="M89.22,0a23.23,23.23,0,0,1,.22,5C87.85,31.66,80.37,58.77,73.3,84.5c-2.23,8.15,8.66,5.6,12.57,5.19Q117.84,86.36,185,79q62.61-6.89,203.51-21.41C504.82,45.57,621.44,34.74,738.18,28c7.83-.46,18.34-1.66,27.58-1.91.37,0,.52.16.45.53A1,1,0,0,1,766,27a1.34,1.34,0,0,1-.86.3c-20.62,1.67-41,4.45-61.52,6.78-96.49,11-196,23.68-291.1,39.42q-78.15,12.91-155,32.07a907.88,907.88,0,0,0-111.3,35.49,495.62,495.62,0,0,0-141.93,85,5.09,5.09,0,0,0-1.82,4.71,1.13,1.13,0,0,1-1,1.25h0a1.2,1.2,0,0,1-.62-.11A1.89,1.89,0,0,1,0,230.65V2.41A4.91,4.91,0,0,0,.5,0Z"/><path class="cls-3" d="M92.84.13l950.9.06m.06,0a.11.11,0,0,0-.06-.07q-150.37-.21,327.51.1c18,0,36.79.32,55.21.15a.46.46,0,0,1,.52.39.29.29,0,0,1,0,.13V21.2q-10.83.09-21.56-.2c-1.84,0-3.59-.88-5.28-.82-7,.24-14.69-1.11-20.47-1.35-79.72-3.22-159.45-6.06-239.26-6.38q-245-1-489.42,18.31C462,45.44,273.49,66.19,85,86.94c-2.26.25-4.91,0-7.14.29-1.48.16-2-.48-1.63-1.92C83.84,57.39,91.75,28.07,92.84.13Z"/><path class="cls-2" d="M1431,779.56v232.66a.46.46,0,0,1-.4.53h-.13l-89.69.25-3.84-.61,3.14.11c.39,0,.57-.17.54-.55-.73-11,1.58-23.8,3.66-33.9q5.12-24.74,12.8-52.74c1-3.67-5-4.57-7.26-4.32C1141,943.75,932.15,966.82,722.58,981.68q-8.94.65-17.88,1.05c-13.06.6-27.37,2-41.19,2.07a.94.94,0,0,1-.7-.24c-.29-.26-.24-.4.15-.43,13.16-.89,29.08-3,39.21-4.13,112.77-12.47,225.56-26.63,337.35-46.14q63.7-11.11,126.47-26.64c56.16-13.88,111.32-31.61,163.14-57.62a466.28,466.28,0,0,0,95.23-63.45c2-1.75,3.67-2.19,3.1-5.58a.86.86,0,0,1,.38-.87A3.62,3.62,0,0,1,1431,779.56Z"/><path class="cls-3" d="M1338.37,1012.09l3.84.61L4.45,1013V994.69l.21-4a.89.89,0,0,1,.93-.84c132,6.9,264.33,10,396.55,8,1.08,0,2.59-1,3.89-.94q18.81.21,37.61-.59c6-.25,13.82.34,20.33.17q125.09-3.22,249.92-11.66c212.06-14.34,423.38-38.2,634.64-61.15a40.67,40.67,0,0,1,4.68-.27,1.22,1.22,0,0,1,1.2,1.21,1.61,1.61,0,0,1,0,.31q-3.83,14.45-7.4,28.39a390.19,390.19,0,0,0-9.69,55.87C1337.1,1011,1337.46,1012,1338.37,1012.09Z"/></g></g></g><g id="Capa_2-3" data-name="Capa 2"><g class="cls-4"><path class="cls-5" d="M921.67,268.76q-28.56,6.92-46.72-1.84a379.43,379.43,0,0,1-124.45-85.2,3,3,0,0,1-.62-3.43c1.13-2.76,3.33-3.32,6.6-1.74,30.71,15.35,130.34,66,159.56,36.28,54.5-55.16,94.2-110.37,169.58-136,36.9-12.59,74.25-5.94,112.22,5.12,121.07,36.07,141.29,181.6,112.58,285.74-36.9,133.05-79.06,256.32-150.29,375.7-54.25,90.93-166.72,207-280.32,128.34a76.74,76.74,0,0,1-32.39-47.44c-6.4-27.68-2.56-51.73,1.58-72.71a296.77,296.77,0,0,1,10-37,420.22,420.22,0,0,1,17.19-44.87h0a41.42,41.42,0,0,1,5.12-8.24c1-1.23,5.68-7.32,7.52-6.45.62.36.72,1.43.77,1.79.31,4.5-16,86.69-.66,127.06a79,79,0,0,0,37.91,40.17,72.06,72.06,0,0,0,28.35,6.35c46.52,1.43,81.88-29.22,106.49-66.53a897.64,897.64,0,0,0,62.18-112.58c12.12-26.09,32.39-63.65,44.36-97.53,18.42-52.09,40.94-107.46,51.68-157.92,11.11-53.52,27.38-142.87.72-193.27-25-47.18-88.27-64.48-135.5-40.32q-7.36,3.74-49.18,34C998.48,223.53,964.55,251.83,921.67,268.76Z"/><path class="cls-6" d="M899.41,284.06a126.11,126.11,0,0,1-46.57,11.47c-25,1.17-45.44-3.53-72.25-15.71A1263.54,1263.54,0,0,0,662.48,233.2a79.17,79.17,0,0,0-63.71,3.89c-30.7,16.32-38.22,54.34-41.4,70.31-1.84,9-4.14,25.07.41,58.28,5.53,40.48,15.82,67.14,24.87,93.75a1066.63,1066.63,0,0,1,52.1,252.07,469.21,469.21,0,0,1-5.12,121.38,1.95,1.95,0,0,1-3.79,0c-7.42-46-14.79-84.69-20.77-114.11-12.34-60.74-21.55-96-26.2-113.3C568.63,568.17,533.07,482.66,532,480,503,398.59,476.73,311.08,529.89,233.4a105.16,105.16,0,0,1,30.66-30.34,108.31,108.31,0,0,1,33.62-13.46c9-2.1,42.67-9,89.14,5.12,18.83,5.73,39.2,16.94,79.93,39.35a498,498,0,0,0,51.94,26.71,308.8,308.8,0,0,0,50.4,17A283.52,283.52,0,0,0,899.41,284.06Z"/><path class="cls-6" d="M1087.51,440c7.94-8.55,18-22.06,29.63-29.73a8,8,0,0,1,11.14,2.26l0,0a8.16,8.16,0,0,1,.36,8.39c-78.45,139.39-214.93,190.51-368,131.72a35.07,35.07,0,0,0-21.55-3.59,151.57,151.57,0,0,1-17.55,1.33,3,3,0,0,1-2.5-.56,2.94,2.94,0,0,1-.62-2.45l1.89-30.14a2.87,2.87,0,0,1,3.06-2.67h.07a2.75,2.75,0,0,1,1.07,0c18.32,9.11,36.74,19.65,56.29,24.31,51.58,12.23,102.8,15.35,154.44,0C996.94,521.25,1042.18,489.06,1087.51,440Z"/></g></g></g></svg>